<svg width="84" height="84" viewBox="0 0 84 84" fill="none" xmlns="http://www.w3.org/2000/svg">
<path d="M63 24.5V14C63 12.1435 62.2625 10.363 60.9497 9.05025C59.637 7.7375 57.8565 7 56 7C54.1435 7 52.363 7.7375 51.0503 9.05025C49.7375 10.363 49 12.1435 49 14M49 35C49 35 56 35 63 42C70 35 77 35 77 35" stroke="#39010A" stroke-width="6" stroke-linecap="round" stroke-linejoin="round"/>
<path d="M77 35C77 58.1 58.1 77 35 77C19.6 77 7 67.55 7 56V54.6C11.55 59.85 17.5 63 24.5 63C38.15 63 49 50.4 49 35C49 29.05 53.55 24.5 59.5 24.5H66.5C72.45 24.5 77 29.05 77 35Z" stroke="#39010A" stroke-width="6" stroke-linecap="round" stroke-linejoin="round"/>
</svg>
