<svg width="84" height="84" viewBox="0 0 84 84" fill="none" xmlns="http://www.w3.org/2000/svg">
<path d="M73.25 40.5V71.5H10.75V40.5H73.25Z" stroke="#39010A" stroke-width="4"/>
<path d="M42 49.2502C43.7902 49.2502 45.5076 49.9609 46.7734 51.2268C48.0392 52.4927 48.75 54.2101 48.75 56.0002C48.7499 57.7902 48.039 59.507 46.7734 60.7727C45.5076 62.0386 43.7902 62.7502 42 62.7502C40.2098 62.7502 38.4924 62.0386 37.2266 60.7727C35.961 59.507 35.2501 57.7902 35.25 56.0002C35.25 54.2101 35.9608 52.4927 37.2266 51.2268C38.4924 49.9609 40.2098 49.2502 42 49.2502ZM58.3477 23.1799L59.2061 24.3831L60.6084 23.9163L65.249 22.3694L70.0859 36.51H16.2129L49.1094 10.2297L58.3477 23.1799Z" stroke="#39010A" stroke-width="4"/>
<path d="M73.5 38.5104H72.884L66.5035 19.8449L11.739 38.5104L10.5 38.4999M8.75 38.5139H10.5L49.511 7.34985L59.3705 21.1749" stroke="#39010A" stroke-width="4" stroke-linecap="square"/>
<path d="M50.75 56C50.75 58.3206 49.8281 60.5462 48.1872 62.1872C46.5462 63.8281 44.3206 64.75 42 64.75C39.6794 64.75 37.4538 63.8281 35.8128 62.1872C34.1719 60.5462 33.25 58.3206 33.25 56C33.25 53.6794 34.1719 51.4538 35.8128 49.8128C37.4538 48.1719 39.6794 47.25 42 47.25C44.3206 47.25 46.5462 48.1719 48.1872 49.8128C49.8281 51.4538 50.75 53.6794 50.75 56Z" stroke="#39010A" stroke-width="4" stroke-linecap="square"/>
<path d="M75.25 38.5V73.5H8.75V38.5H75.25Z" stroke="#39010A" stroke-width="4" stroke-linecap="square"/>
<path d="M8.75 38.5H15.75C15.75 40.3565 15.0125 42.137 13.6997 43.4497C12.387 44.7625 10.6065 45.5 8.75 45.5V38.5ZM75.25 38.5H68.25C68.25 40.3565 68.9875 42.137 70.3003 43.4497C71.613 44.7625 73.3935 45.5 75.25 45.5V38.5ZM8.75 73.5H15.757C15.7579 72.5796 15.5773 71.668 15.2255 70.8174C14.8737 69.9669 14.3576 69.1941 13.7068 68.5432C13.0559 67.8924 12.2831 67.3763 11.4326 67.0245C10.582 66.6727 9.67043 66.4921 8.75 66.493V73.5ZM75.25 73.5H68.25C68.25 71.6435 68.9875 69.863 70.3003 68.5502C71.613 67.2375 73.3935 66.5 75.25 66.5V73.5Z" stroke="#39010A" stroke-width="4" stroke-linecap="square"/>
</svg>
