<svg width="30" height="30" viewBox="0 0 30 30" fill="none" xmlns="http://www.w3.org/2000/svg">
<path d="M16.0833 0C17.724 0.004375 18.5567 0.013125 19.2756 0.0335417L19.5585 0.04375C19.8852 0.0554166 20.2075 0.0699999 20.5969 0.0874999C22.1485 0.160417 23.2073 0.405417 24.1362 0.765625C25.0987 1.13604 25.9096 1.63771 26.7204 2.44708C27.4623 3.17586 28.0361 4.05777 28.4019 5.03125C28.7621 5.96021 29.0071 7.01896 29.08 8.57208C29.0975 8.96 29.1121 9.28229 29.1237 9.61042L29.1325 9.89334C29.1544 10.6108 29.1631 11.4435 29.166 13.0842L29.1675 14.1721V16.0825C29.171 17.1462 29.1599 18.2099 29.1339 19.2733L29.1252 19.5563C29.1135 19.8844 29.0989 20.2067 29.0814 20.5946C29.0085 22.1477 28.7606 23.205 28.4019 24.1354C28.0361 25.1089 27.4623 25.9908 26.7204 26.7196C25.9916 27.4614 25.1097 28.0353 24.1362 28.401C23.2073 28.7613 22.1485 29.0063 20.5969 29.0792L19.5585 29.1229L19.2756 29.1317C18.5567 29.1521 17.724 29.1623 16.0833 29.1652L14.9954 29.1667H13.0865C12.0223 29.1704 10.958 29.1592 9.89416 29.1331L9.61125 29.1244C9.26505 29.1113 8.91893 29.0962 8.57291 29.0792C7.02125 29.0063 5.9625 28.7613 5.03208 28.401C4.05912 28.0351 3.17772 27.4613 2.44937 26.7196C1.707 25.991 1.13265 25.109 0.766455 24.1354C0.406246 23.2065 0.161246 22.1477 0.0883294 20.5946L0.0445795 19.5563L0.037288 19.2733C0.0104051 18.2099 -0.00174897 17.1462 0.000829495 16.0825V13.0842C-0.00320702 12.0205 0.00748856 10.9567 0.0329129 9.89334L0.0431212 9.61042C0.0547879 9.28229 0.0693712 8.96 0.0868712 8.57208C0.159788 7.01896 0.404788 5.96167 0.764996 5.03125C1.13205 4.05737 1.7074 3.17543 2.45083 2.44708C3.17876 1.70559 4.05964 1.13177 5.03208 0.765625C5.9625 0.405417 7.01979 0.160417 8.57291 0.0874999C8.96083 0.0699999 9.28458 0.0554166 9.61125 0.04375L9.89416 0.0349999C10.9576 0.00908937 12.0213 -0.00209227 13.085 0.00145823L16.0833 0ZM14.5842 7.29167C12.6503 7.29167 10.7956 8.0599 9.42817 9.42735C8.06072 10.7948 7.2925 12.6495 7.2925 14.5833C7.2925 16.5172 8.06072 18.3719 9.42817 19.7393C10.7956 21.1068 12.6503 21.875 14.5842 21.875C16.518 21.875 18.3727 21.1068 19.7401 19.7393C21.1076 18.3719 21.8758 16.5172 21.8758 14.5833C21.8758 12.6495 21.1076 10.7948 19.7401 9.42735C18.3727 8.0599 16.518 7.29167 14.5842 7.29167ZM14.5842 10.2083C15.1587 10.2082 15.7276 10.3213 16.2585 10.5411C16.7893 10.7609 17.2716 11.083 17.678 11.4892C18.0843 11.8954 18.4066 12.3777 18.6266 12.9084C18.8465 13.4392 18.9598 14.0081 18.9599 14.5826C18.96 15.1571 18.8469 15.7261 18.6271 16.2569C18.4074 16.7877 18.0852 17.2701 17.679 17.6764C17.2728 18.0827 16.7906 18.4051 16.2598 18.625C15.729 18.845 15.1602 18.9582 14.5856 18.9583C13.4253 18.9583 12.3125 18.4974 11.492 17.6769C10.6716 16.8565 10.2106 15.7437 10.2106 14.5833C10.2106 13.423 10.6716 12.3102 11.492 11.4897C12.3125 10.6693 13.4253 10.2083 14.5856 10.2083M22.2419 5.10417C21.7584 5.10417 21.2947 5.29622 20.9529 5.63809C20.611 5.97995 20.419 6.44362 20.419 6.92708C20.419 7.41055 20.611 7.87422 20.9529 8.21608C21.2947 8.55795 21.7584 8.75 22.2419 8.75C22.7253 8.75 23.189 8.55795 23.5309 8.21608C23.8727 7.87422 24.0648 7.41055 24.0648 6.92708C24.0648 6.44362 23.8727 5.97995 23.5309 5.63809C23.189 5.29622 22.7253 5.10417 22.2419 5.10417Z" fill="white"/>
</svg>
