<svg width="84" height="84" viewBox="0 0 84 84" fill="none" xmlns="http://www.w3.org/2000/svg">
<path d="M71.925 5.88L62.23 35H57.365L66.325 8.12L59.675 5.91501L53.515 24.36C49.525 16.17 41.16 10.5 31.5 10.5C17.99 10.5 7 21.49 7 35V38.5C7 51.135 13.65 62.545 24.5 68.81V73.5C24.5 75.425 26.075 77 28 77H56C57.925 77 59.5 75.425 59.5 73.5V68.81C70.35 62.58 77 51.135 77 38.5C77 36.575 75.425 35 73.5 35H69.615L78.575 8.12L71.925 5.91501V5.88ZM31.5 17.5C41.16 17.5 49 25.34 49 35H43.75C43.75 28.245 38.255 22.75 31.5 22.75C24.745 22.75 19.25 28.245 19.25 35H14C14 25.34 21.84 17.5 31.5 17.5ZM36.75 35H26.25C26.25 32.095 28.595 29.75 31.5 29.75C34.405 29.75 36.75 32.095 36.75 35ZM54.46 63.56C53.27 64.155 52.5 65.38 52.5 66.71V70H31.5V66.71C31.5 65.38 30.73 64.155 29.54 63.56C25.3924 61.526 21.818 58.4888 19.1411 54.7239C16.4641 50.9591 14.7692 46.5856 14.21 42H69.79C69.2278 46.5846 67.5316 50.9568 64.855 54.7212C62.1784 58.4855 58.6057 61.5234 54.46 63.56Z" fill="#39010A"/>
</svg>
