<svg width="27" height="27" viewBox="0 0 27 27" fill="none" xmlns="http://www.w3.org/2000/svg">
<path d="M23.6304 17.8646L19.9262 17.4417C19.4906 17.3905 19.0492 17.4387 18.6349 17.5827C18.2207 17.7267 17.8445 17.9627 17.5345 18.2729L14.8512 20.9563C10.7116 18.8503 7.3467 15.4855 5.24077 11.3458L7.93869 8.64792C8.56577 8.02084 8.87202 7.14584 8.76994 6.25625L8.34702 2.58125C8.26465 1.86972 7.92333 1.21337 7.38811 0.737327C6.8529 0.261284 6.16123 -0.00116677 5.44494 3.89952e-06H2.92202C1.27411 3.89952e-06 -0.0967262 1.37084 0.00535716 3.01875C0.778274 15.4729 10.7387 25.4188 23.1783 26.1917C24.8262 26.2938 26.197 24.9229 26.197 23.275V20.7521C26.2116 19.2792 25.1033 18.0396 23.6304 17.8646Z" fill="white"/>
</svg>
